<?xml version="1.0" encoding="UTF-8"?>
<svg width="291px" height="87px" viewBox="0 0 291 87" version="1.1" xmlns="http://www.w3.org/2000/svg" xmlns:xlink="http://www.w3.org/1999/xlink">
    <!-- Generator: Sketch 59.1 (86144) - https://sketch.com -->
    <title>Attica_Logo_Reverse</title>
    <desc>Created with Sketch.</desc>
    <g id="Attica-site" stroke="none" stroke-width="1" fill="none" fill-rule="evenodd">
        <g id="Desktop" transform="translate(-815.000000, -555.000000)" fill="#FFFFFE">
            <g id="Attica_Logo_Reverse" transform="translate(815.000000, 555.000000)">
                <path d="M92.1571345,13.076103 C90.118458,13.076103 88.4383427,11.3992288 88.4383427,9.24997165 L88.4383427,8.5309062 L77.277983,8.5309062 L77.277983,52.1721674 C77.277983,54.3265283 75.5990059,56 73.5586219,56 C71.3987175,56 69.7191713,54.3265283 69.7191713,52.1721674 L69.7191713,8.5309062 L58.5588116,8.5309062 L58.5588116,9.24997165 C58.5588116,11.3992288 56.8792654,13.076103 54.8400197,13.076103 C52.6784079,13.076103 51,11.3992288 51,9.24997165 L51,4.82556425 C51,2.67403879 52.6784079,1 54.8400197,1 L92.1571345,1 C94.3187464,1 96,2.67403879 96,4.82556425 L96,9.24997165 C96,11.3992288 94.3187464,13.076103 92.1571345,13.076103" id="Fill-1"></path>
                <path d="M148.160029,13.076103 C146.120809,13.076103 144.441284,11.3992288 144.441284,9.24997165 L144.441284,8.5309062 L133.281065,8.5309062 L133.281065,52.1721674 C133.281065,54.3265283 131.60154,56 129.560613,56 C127.402443,56 125.721211,54.3265283 125.721211,52.1721674 L125.721211,8.5309062 L114.563269,8.5309062 L114.563269,9.24997165 C114.563269,11.3992288 112.881468,13.076103 110.842248,13.076103 C108.682371,13.076103 107,11.3992288 107,9.24997165 L107,4.82556425 C107,2.67403879 108.682371,1 110.842248,1 L148.160029,1 C150.317629,1 152,2.67403879 152,4.82556425 L152,9.24997165 C152,11.3992288 150.317629,13.076103 148.160029,13.076103" id="Fill-2"></path>
                <path d="M170.200178,56 C168.178865,56 166.39585,54.2051718 166.39585,52.1721674 L166.39585,8.5309062 L165.803765,8.5309062 C163.665837,8.5309062 162,6.85630033 162,4.82556425 C162,2.67403879 163.665837,1 165.803765,1 L170.200178,1 C172.334163,1 174,2.67403879 174,4.82556425 L174,52.1721674 C174,54.2051718 172.334163,56 170.200178,56" id="Fill-3"></path>
                <path d="M235.75176,10.0027473 C235.632859,12.0516474 233.943657,13.6176129 231.895464,13.6176129 C229.603751,13.4970221 227.792218,11.8104658 228.036881,9.52209878 L228.159212,8.31561955 C225.868071,7.95384723 222.737188,7.5915034 219.964725,7.5915034 C208.031699,7.5915034 199.594263,16.1483045 199.594263,28.4411334 C199.594263,41.0911625 207.065624,49.4062105 219.964725,49.4062105 C224.663621,49.4062105 230.448066,47.5990635 230.448066,47.5990635 C232.982727,46.877805 235.510528,48.6826659 235.510528,51.2156436 C235.510528,52.9016283 234.425551,54.3452885 232.736349,54.8276516 C232.498546,54.9516714 225.868071,57 219.964725,57 C202.846334,57 192,45.3084104 192,28.4411334 C192,11.9310566 203.813553,0 219.964725,0 C225.269562,0 231.770846,1.0870315 233.339431,1.56939459 C235.02749,2.17006237 236.112467,3.73602783 235.990707,5.42487015 L235.75176,10.0027473" id="Fill-4"></path>
                <path d="M48.7595564,50.7276156 L29.1585234,3.39323172 C28.5542582,1.95820201 27.2217759,1 25.6499977,1 L22.7468848,1 C21.1728112,1 19.7215417,1.95820201 19.1161287,3.39323172 L0.241591324,50.8469646 C0,51.2067166 0,51.6852493 0,52.165487 C0,54.3217257 1.69228697,56 3.87177355,56 C5.3236169,56 6.7748864,55.0406613 7.37972549,53.6033583 L14.3973509,34.3114441 L24.1981543,9.74714544 L34.3616316,34.3114441 L34.3289221,34.3114441 L41.6208484,53.6033583 C42.2251136,55.161147 43.6781047,56 45.2498829,56 C47.3082869,56 49,54.3217257 49,52.165487 C49,51.6852493 48.8800651,51.2067166 48.7595564,50.7276156" id="Fill-5"></path>
                <path d="M242.243881,50.7276156 L261.84216,3.39323172 C262.446411,1.95820201 263.778288,1 265.350603,1 L268.255369,1 C269.826537,1 271.281789,1.95820201 271.883171,3.39323172 L290.756693,50.8469646 C291,51.2067166 291,51.6852493 291,52.165487 C291,54.3217257 289.307179,56 287.129465,56 C285.676508,56 284.225272,55.0406613 283.622169,53.6033583 L276.602412,34.3114441 L266.801265,9.74714544 L256.639173,34.3114441 L256.671308,34.3114441 L249.377831,53.6033583 C248.775875,55.161147 247.321197,56 245.751177,56 C243.693969,56 242,54.3217257 242,52.165487 C242,51.6852493 242.119358,51.2067166 242.243881,50.7276156" id="Fill-6"></path>
                <path d="M286.505127,3.43711132 L284.701462,3.43711132 L284.701462,5.65180122 L286.505127,5.65180122 C287.264918,5.65180122 287.644254,5.28315312 287.644254,4.5447364 C287.644254,3.80631968 287.264918,3.43711132 286.505127,3.43711132 Z M287.518743,8.75337554 L285.68258,6.0949633 L284.701462,6.0949633 L284.701462,8.75337554 L284.260492,8.75337554 L284.260492,2.99394924 L286.474309,2.99394924 C286.958424,2.99394924 287.339441,3.13177209 287.612876,3.40517676 C287.930577,3.70099165 288.088026,4.08084487 288.088026,4.5447364 C288.088026,5.57840775 287.54956,6.0949633 286.474309,6.0949633 L286.221046,6.0949633 L288.088026,8.75337554 L287.518743,8.75337554 Z M289.165518,2.83539694 C288.255561,1.92890358 287.202723,1.4756569 285.99916,1.4756569 C284.795596,1.4756569 283.740517,1.92890358 282.834482,2.83539694 C281.927887,3.74245056 281.47459,4.79685136 281.47459,6.00028013 C281.47459,7.20258838 281.927887,8.2581097 282.834482,9.16460306 C283.740517,10.0716567 284.795596,10.5249034 285.99916,10.5249034 C287.202723,10.5249034 288.255561,10.0716567 289.165518,9.16460306 C290.071553,8.2581097 290.52429,7.20258838 290.52429,6.00028013 C290.52429,4.79685136 290.071553,3.74245056 289.165518,2.83539694 Z M289.543733,9.54389602 C288.572701,10.5148188 287.392111,11 285.99916,11 C284.606769,11 283.426178,10.5148188 282.455707,9.54389602 C281.483555,8.57409379 281,7.39251499 281,6.00028013 C281,4.60804527 281.483555,3.42758698 282.455707,2.45610398 C283.426178,1.4857415 284.606769,1 285.99916,1 C287.392111,1 288.572701,1.4857415 289.543733,2.45610398 C290.513644,3.42758698 291,4.60804527 291,6.00028013 C291,7.39251499 290.513644,8.57409379 289.543733,9.54389602 L289.543733,9.54389602 Z" id="Fill-7"></path>
                <path d="M7.98791989,70.538727 L4.40771361,79.7718355 L11.5681262,79.7718355 L7.98791989,70.538727 Z M13.9953847,86 L11.9844684,80.77367 L4.01553156,80.77367 L1.98045511,86 L1,86 L7.98791989,68 L15,86 L13.9953847,86 L13.9953847,86 Z" id="Fill-8"></path>
                <path d="M31.4789107,85.8529748 C30.5932691,86.6172769 29.4258829,87 27.9761984,87 C26.5752242,87 25.4072844,86.6092677 24.4740396,85.8272311 C23.4915311,84.978833 23,83.8295195 23,82.3810069 L23,69 L23.9664563,69 L23.9664563,82.3810069 C23.9664563,83.5303204 24.3688697,84.4296339 25.17425,85.0778032 C25.9148677,85.6767735 26.848666,85.9765446 27.9761984,85.9765446 C29.0876785,85.9765446 30.0214768,85.6681922 30.7781468,85.0532037 C31.5995793,84.3861556 32.0097421,83.4971396 32.0097421,82.3810069 L32.0097421,69 L33,69 L33,82.3810069 C33,83.8295195 32.4935237,84.9868421 31.4789107,85.8529748" id="Fill-9"></path>
                <path d="M54.1339943,72.4296993 C52.827704,70.8162329 51.1095981,70.0092108 48.9814045,70.0092108 L44.0044843,70.0092108 L44.0044843,85.9659488 L48.9814045,85.9659488 C50.825071,85.9659488 52.4251039,85.2773516 53.7826552,83.8995796 C55.2404246,82.4207131 55.9695972,80.4456176 55.9695972,77.9748708 C55.9695972,75.7739016 55.3573456,73.9258962 54.1339943,72.4296993 Z M54.8879335,84.2779614 C53.3806311,86.0930389 51.4114041,87 48.9814045,87 L43,87 L43,69 L48.9814045,69 C51.3947011,69 53.3552886,69.9081164 54.863167,71.7231939 C56.2869544,73.421002 57,75.5035463 57,77.9748708 C57,80.4629481 56.2961698,82.5628229 54.8879335,84.2779614 L54.8879335,84.2779614 Z" id="Fill-10"></path>
                <polygon id="Fill-11" points="65 87 66 87 66 69 65 69"></polygon>
                <path d="M89.7674752,72.2378871 C88.2651369,70.733017 86.3385297,69.9805819 83.9870923,69.9805819 C81.668766,69.9805819 79.7589948,70.733017 78.2572177,72.2378871 C76.7548793,73.7405095 76.0039908,75.6612138 76.0039908,78 C76.0039908,80.3376623 76.7464613,82.2499376 78.2319636,83.7379496 C79.7343019,85.2428197 81.6524911,85.993007 83.9870923,85.993007 C86.3385297,85.993007 88.2651369,85.257992 89.7674752,83.7862762 C91.2529775,82.2993881 91.9960092,80.3696928 91.9960092,78 C91.9960092,75.6443556 91.2529775,73.7242133 89.7674752,72.2378871 Z M90.477396,84.4735265 C88.7960342,86.1570929 86.6325996,87 83.9870923,87 C81.3427075,87 79.1871298,86.1660839 77.522604,84.4976898 C75.8406809,82.8141234 75,80.6472902 75,78 C75,75.3521479 75.8322629,73.1931818 77.4979111,71.5253497 C79.1787117,69.8412213 81.3427075,69 83.9870923,69 C86.6163247,69 88.7791981,69.8327922 90.477396,71.5011863 C92.1593191,73.1841908 93,75.3521479 93,78 C93,80.6472902 92.1593191,82.8051324 90.477396,84.4735265 L90.477396,84.4735265 Z" id="Fill-12"></path>
                <path d="M118.805577,71.937514 C118.602151,71.5077185 118.32098,71.1564877 117.964401,70.8786225 C117.607237,70.6013351 117.189864,70.3910588 116.71462,70.2483713 C116.237622,70.1062614 115.727889,70.0352065 115.184252,70.0352065 L112.02005,70.0352065 L112.02005,76.967393 L115.464839,76.967393 C116.552113,76.967393 117.432455,76.6635322 118.104694,76.0581212 C118.776349,75.4538657 119.112469,74.5804102 119.112469,73.4371771 C119.112469,72.866427 119.010171,72.3655766 118.805577,71.937514 Z M119.775355,87 L113.984743,78.0008665 L112.02005,78.0008665 L112.02005,87 L111,87 L111,69 L115.209388,69 C115.889227,69 116.535746,69.098206 117.147776,69.2899965 C117.76039,69.4846754 118.287075,69.7694727 118.729584,70.1472769 C119.171509,70.5256587 119.523996,70.9924259 119.788215,71.5458455 C120.05185,72.1009981 120.183375,72.7404923 120.183375,73.4620174 C120.183375,74.251709 120.060034,74.933374 119.813351,75.5035463 C119.567253,76.0760294 119.218273,76.5468404 118.768165,76.9159793 C118.316888,77.2856959 117.786111,77.5595173 117.172912,77.7362881 C116.560882,77.9119035 115.889227,78.0008665 115.158532,78.0008665 L121,87 L119.775355,87 L119.775355,87 Z" id="Fill-13"></path>
                <polyline id="Fill-14" points="130 87 130 69 139 69 139 70.0352065 131.075695 70.0352065 131.075695 76.5890112 139 76.5890112 139 77.6970057 131.075695 77.6970057 131.075695 85.9659488 139 85.9659488 139 87 130 87"></polyline>
                <path d="M161.834773,85.7238387 C160.929289,86.3942308 159.699544,86.8033217 158.144981,86.9499875 C157.966443,86.9668457 157.773444,86.9792083 157.563758,86.9870754 C157.352405,86.9955045 157.134933,87 156.908562,87 C154.286662,87 152.150877,86.1660839 150.499537,84.4976898 C148.833735,82.8141234 148,80.6472902 148,78 C148,75.3521479 148.82428,73.1931818 150.476733,71.5253497 C152.142534,69.8412213 154.286662,69 156.908562,69 C158.396937,69 159.739034,69.2202797 160.937076,69.6614011 C161.648448,69.9406843 162.335348,70.3407842 163,70.8633866 L163,72.1153846 C162.320331,71.5422078 161.575587,71.0842283 160.767437,70.7408841 C159.538248,70.2351399 158.250658,69.9805819 156.908562,69.9805819 C154.610367,69.9805819 152.717083,70.733017 151.227595,72.2378871 C149.739219,73.7405095 148.995031,75.6612138 148.995031,78 C148.995031,80.3376623 149.731989,82.2499376 151.203122,83.7379496 C152.69261,85.2428197 154.593682,85.993007 156.908562,85.993007 C158.347992,85.993007 159.601654,85.7322677 160.670659,85.2096653 C161.284697,84.8983516 162.061144,84.4004745 163,83.7126623 L163,84.8663212 L161.834773,85.7238387" id="Fill-15"></path>
                <path d="M183.767576,72.2378871 C182.265846,70.733017 180.337615,69.9805819 177.987935,69.9805819 C175.669119,69.9805819 173.758285,70.733017 172.257116,72.2378871 C170.754825,73.7405095 170.003398,75.6612138 170.003398,78 C170.003398,80.3376623 170.745846,82.2499376 172.232424,83.7379496 C173.734716,85.2428197 175.653406,85.993007 177.987935,85.993007 C180.337615,85.993007 182.265846,85.257992 183.767576,83.7862762 C185.25191,82.2993881 185.994918,80.3696928 185.994918,78 C185.994918,75.6443556 185.25191,73.7242133 183.767576,72.2378871 Z M184.477475,84.4735265 C182.795043,86.1570929 180.632798,87 177.987935,87 C175.344193,87 173.186438,86.1660839 171.521964,84.4976898 C169.841216,82.8141234 169,80.6472902 169,78 C169,75.3521479 169.832798,73.1931818 171.497272,71.5253497 C173.180265,69.8412213 175.344193,69 177.987935,69 C180.615401,69 182.778769,69.8327922 184.477475,71.5011863 C186.159345,73.1841908 187,75.3521479 187,78 C187,80.6472902 186.159345,82.8051324 184.477475,84.4735265 L184.477475,84.4735265 Z" id="Fill-16"></path>
                <path d="M204.806161,71.937514 C204.600982,71.5077185 204.321564,71.1564877 203.963231,70.8786225 C203.606652,70.6013351 203.189864,70.3910588 202.713451,70.2483713 C202.235868,70.1062614 201.726136,70.0352065 201.183668,70.0352065 L198.02005,70.0352065 L198.02005,76.967393 L201.463085,76.967393 C202.552698,76.967393 203.43187,76.6635322 204.103525,76.0581212 C204.774595,75.4538657 205.111299,74.5804102 205.111299,73.4371771 C205.111299,72.866427 205.010171,72.3655766 204.806161,71.937514 Z M205.774186,87 L199.985328,78.0008665 L198.02005,78.0008665 L198.02005,87 L197,87 L197,69 L201.208219,69 C201.888058,69 202.535161,69.098206 203.147191,69.2899965 C203.759221,69.4846754 204.285906,69.7694727 204.728415,70.1472769 C205.172093,70.5256587 205.523996,70.9924259 205.788215,71.5458455 C206.050096,72.1009981 206.182791,72.7404923 206.182791,73.4620174 C206.182791,74.251709 206.057696,74.933374 205.812767,75.5035463 C205.566084,76.0760294 205.217104,76.5468404 204.766411,76.9159793 C204.316888,77.2856959 203.784942,77.5595173 203.172912,77.7362881 C202.561466,77.9119035 201.888058,78.0008665 201.157947,78.0008665 L207,87 L205.774186,87 L205.774186,87 Z" id="Fill-17"></path>
                <path d="M227.135604,72.4296993 C225.827532,70.8162329 224.110508,70.0092108 221.982227,70.0092108 L217.005678,70.0092108 L217.005678,85.9659488 L221.982227,85.9659488 C223.825969,85.9659488 225.425492,85.2773516 226.781947,83.8995796 C228.241504,82.4207131 228.969555,80.4456176 228.969555,77.9748708 C228.969555,75.7739016 228.357278,73.9258962 227.135604,72.4296993 Z M227.888423,84.2779614 C226.381634,86.0930389 224.41175,87 221.982227,87 L216,87 L216,69 L221.982227,69 C224.395622,69 226.355715,69.9081164 227.863655,71.7231939 C229.288653,73.421002 230,75.5035463 230,77.9748708 C230,80.4629481 229.296717,82.5628229 227.888423,84.2779614 L227.888423,84.2779614 Z" id="Fill-18"></path>
                <polygon id="Fill-19" points="239 87 240 87 240 69 239 69"></polygon>
                <polyline id="Fill-20" points="249.975808 71.7828595 249.975808 86.7043353 249 86.7043353 249 69 262.001277 84.3897997 262.001277 69.1230055 263 69.1230055 263 87 249.975808 71.7828595"></polyline>
                <path d="M288.672694,84.3262987 C286.991333,86.1076424 284.76336,87 281.988776,87 C279.34383,87 277.18713,86.1660839 275.522604,84.4976898 C273.841242,82.8141234 273,80.6472902 273,78 C273,75.3830544 273.841242,73.2342033 275.522604,71.5500749 C277.219118,69.8502123 279.37638,69 281.988776,69 C285.121968,69 287.589013,70.2008616 289.384299,72.6037088 L288.575045,73.2179071 C287.007607,71.0589411 284.811062,69.9805819 281.988776,69.9805819 C279.686163,69.9805819 277.775831,70.7408841 276.257218,72.2609266 C274.737482,73.7820929 273.979859,75.6938062 273.979859,78 C273.979859,80.32249 274.729625,82.2342033 276.231964,83.7379496 C277.766852,85.2428197 279.686163,85.993007 281.988776,85.993007 C284.453576,85.993007 286.436304,85.1686439 287.938642,83.5171079 C289.082372,82.2752248 289.733928,80.8692557 289.897799,79.2986389 L284.117416,79.2986389 L284.117416,78.2938936 L291,78.2938936 C291,80.6804446 290.223857,82.6916209 288.672694,84.3262987" id="Fill-21"></path>
            </g>
        </g>
    </g>
</svg>