<?xml version="1.0" encoding="UTF-8"?>
<svg width="94px" height="18px" viewBox="0 0 94 18" version="1.1" xmlns="http://www.w3.org/2000/svg" xmlns:xlink="http://www.w3.org/1999/xlink">
    <!-- Generator: Sketch 59.1 (86144) - https://sketch.com -->
    <title>Attica_Logo_Reverse</title>
    <desc>Created with Sketch.</desc>
    <g id="Attica-site" stroke="none" stroke-width="1" fill="none" fill-rule="evenodd">
        <g id="Mobile-Portrait" transform="translate(-114.000000, -16.000000)" fill="#FFFFFF">
            <g id="Attica_Logo_Reverse" transform="translate(114.000000, 16.000000)">
                <path d="M28.8044419,3.95217916 C28.1701869,3.95217916 27.6474844,3.40338396 27.6474844,2.69999072 L27.6474844,2.46466021 L24.1753725,2.46466021 L24.1753725,16.7472548 C24.1753725,17.4523184 23.6530241,18 23.0182379,18 C22.3462677,18 21.8237422,17.4523184 21.8237422,16.7472548 L21.8237422,2.46466021 L18.3516303,2.46466021 L18.3516303,2.69999072 C18.3516303,3.40338396 17.8291048,3.95217916 17.1946728,3.95217916 C16.5221714,3.95217916 16,3.40338396 16,2.69999072 L16,1.25200285 C16,0.54786724 16.5221714,0 17.1946728,0 L28.8044419,0 C29.4769433,0 30,0.54786724 30,1.25200285 L30,2.69999072 C30,3.40338396 29.4769433,3.95217916 28.8044419,3.95217916" id="Fill-1"></path>
                <path d="M45.8053423,3.95217916 C45.1709183,3.95217916 44.6483995,3.40338396 44.6483995,2.69999072 L44.6483995,2.46466021 L41.1763315,2.46466021 L41.1763315,16.7472548 C41.1763315,17.4523184 40.6538126,18 40.0188574,18 C39.3474269,18 38.8243768,17.4523184 38.8243768,16.7472548 L38.8243768,2.46466021 L35.3530171,2.46466021 L35.3530171,2.69999072 C35.3530171,3.40338396 34.8297899,3.95217916 34.195366,3.95217916 C33.5234042,3.95217916 33,3.40338396 33,2.69999072 L33,1.25200285 C33,0.54786724 33.5234042,0 34.195366,0 L45.8053423,0 C46.4765958,0 47,0.54786724 47,1.25200285 L47,2.69999072 C47,3.40338396 46.4765958,3.95217916 45.8053423,3.95217916" id="Fill-2"></path>
                <path d="M53.7333928,18 C53.0596216,18 52.4652833,17.4126017 52.4652833,16.7472548 L52.4652833,2.46466021 L52.2679217,2.46466021 C51.5552791,2.46466021 51,1.91660738 51,1.25200285 C51,0.54786724 51.5552791,0 52.2679217,0 L53.7333928,0 C54.4447209,0 55,0.54786724 55,1.25200285 L55,16.7472548 C55,17.4126017 54.4447209,18 53.7333928,18" id="Fill-3"></path>
                <path d="M74.9210147,3.15876231 C74.8831824,3.80578338 74.345709,4.30029879 73.6940112,4.30029879 C72.9648299,4.2622175 72.388433,3.72962079 72.4662802,3.00697856 L72.5052038,2.62598512 C71.7762044,2.51174123 70.7800144,2.39731686 69.8978669,2.39731686 C66.100995,2.39731686 63.4163565,5.09946458 63.4163565,8.98141055 C63.4163565,12.9761566 65.7936076,15.6019612 69.8978669,15.6019612 C71.3929705,15.6019612 73.2334757,15.0312832 73.2334757,15.0312832 C74.0399585,14.8035174 74.8442588,15.3734734 74.8442588,16.1733611 C74.8442588,16.7057774 74.499039,17.16167 73.9615656,17.3139952 C73.885901,17.3531594 71.7762044,18 69.8978669,18 C64.4511064,18 61,14.3079191 61,8.98141055 C61,3.76770209 64.7588577,0 69.8978669,0 C71.5857697,0 73.6543601,0.343273106 74.1534554,0.495598291 C74.690565,0.685282852 75.0357848,1.17979826 74.9970431,1.71311689 L74.9210147,3.15876231" id="Fill-4"></path>
                <path d="M14.9263948,16.2744924 L8.92607861,0.783239473 C8.74109945,0.313593387 8.3331967,0 7.8520401,0 L6.96333208,0 C6.48147281,0 6.03720663,0.313593387 5.85187614,0.783239473 L0.0739565278,16.3135521 C0,16.4312891 0,16.5878998 0,16.7450685 C0,17.4507466 0.518047032,18 1.1852368,18 C1.62967864,18 2.07394482,17.6860346 2.25909964,17.2156445 L4.40735232,10.9019272 L7.40759826,2.86270214 L10.5188668,10.9019272 L10.5088537,10.9019272 L12.741076,17.2156445 C12.9260552,17.7254663 13.3708484,18 13.852005,18 C14.4821286,18 15,17.4507466 15,16.7450685 C15,16.5878998 14.9632852,16.4312891 14.9263948,16.2744924" id="Fill-5"></path>
                <path d="M78.0796346,16.2744924 L84.4790725,0.783239473 C84.676379,0.313593387 85.1112777,0 85.6246867,0 L86.5731819,0 C87.0862162,0 87.5614006,0.313593387 87.7577702,0.783239473 L93.9205528,16.3135521 C94,16.4312891 94,16.5878998 94,16.7450685 C94,17.4507466 93.4472421,18 92.7361518,18 C92.2617168,18 91.787844,17.6860346 91.5909123,17.2156445 L89.2987469,10.9019272 L86.0983722,2.86270214 L82.7801382,10.9019272 L82.7906312,10.9019272 L80.4090877,17.2156445 C80.2125307,17.7254663 79.7375337,18 79.2248741,18 C78.5531327,18 78,17.4507466 78,16.7450685 C78,16.5878998 78.0389741,16.4312891 78.0796346,16.2744924" id="Fill-6"></path>
            </g>
        </g>
    </g>
</svg>