<?xml version="1.0" encoding="UTF-8"?>
<svg width="338px" height="382px" viewBox="0 0 338 382" version="1.1" xmlns="http://www.w3.org/2000/svg" xmlns:xlink="http://www.w3.org/1999/xlink">
    <g id="Attica-site" stroke="none" stroke-width="1" fill="none" fill-rule="evenodd">
        <g id="Artboard" fill="#FFFFFE">
            <path d="M335.3968,345.379649 L200.567917,16.6194701 C196.41324,6.65115338 187.245724,0 176.436835,0 L156.465783,0 C145.637772,0 135.655688,6.65115338 131.492599,16.6194701 L1.66125864,346.207984 C0,348.70599 0,352.028508 0,355.367087 C0,370.342125 11.6410481,382 26.6306185,382 C36.6165268,382 46.6001406,375.335079 50.7617005,365.350701 L99.0330428,231.357801 L166.445572,60.7529628 L236.359933,231.357801 L236.136596,231.357801 L286.291004,365.350701 C290.45027,376.171063 300.441532,382 311.254245,382 C325.413186,382 337.051175,370.342125 337.051175,355.367087 C337.051175,352.028508 336.2259,348.70599 335.3968,345.379649" id="Fill-1"></path>
        </g>
    </g>
</svg>