<?xml version="1.0" encoding="UTF-8"?>
<svg width="87px" height="127px" viewBox="0 0 87 127" version="1.1" xmlns="http://www.w3.org/2000/svg" xmlns:xlink="http://www.w3.org/1999/xlink">
    <!-- Generator: Sketch 59.1 (86144) - https://sketch.com -->
    <title>Group</title>
    <desc>Created with Sketch.</desc>
    <g id="Attica-site" stroke="none" stroke-width="1" fill="none" fill-rule="evenodd">
        <g id="Desktop" transform="translate(-961.000000, -8829.000000)">
            <g id="CONTACT-US" transform="translate(0.000000, 8475.000000)">
                <g id="Group" transform="translate(961.497768, 354.000000)">
                    <circle id="Oval" fill="#2D2D2D" cx="43" cy="43" r="43"></circle>
                    <path d="M43,127 L42.5910204,126.244898 C38.1327891,118.059864 30.6095238,105.695238 20.0212245,89.1510204 L18,86 C6,67.3333333 -9.09494702e-13,53.6666667 -9.09494702e-13,45 L85.5022321,45 C85.8303064,53.5681818 79.8059958,67.0233729 67.4293004,85.3655733 L65.5218144,88.1871537 C53.7090259,105.737823 46.2017544,118.675439 43,127 Z" id="Triangle" fill="#2D2D2D"></path>
                    <path d="M18.243881,65.7276156 L37.8421595,18.3932317 C38.4464106,16.958202 39.7782879,16 41.3506031,16 L44.2553695,16 C45.8265371,16 47.2817894,16.958202 47.8831713,18.3932317 L66.7566928,65.8469646 C67,66.2067166 67,66.6852493 67,67.165487 C67,69.3217257 65.3071788,71 63.1294648,71 C61.6765078,71 60.2252723,70.0406613 59.6221689,68.6033583 L52.6024125,49.3114441 L42.8012648,24.7471454 L32.6391732,49.3114441 L32.6713081,49.3114441 L25.3778311,68.6033583 C24.7758754,70.161147 23.3211969,71 21.751177,71 C19.6939688,71 18,69.3217257 18,67.165487 C18,66.6852493 18.1193582,66.2067166 18.243881,65.7276156" id="Fill-6" fill="#FFFFFF"></path>
                </g>
            </g>
        </g>
    </g>
</svg>